<?xml version="1.0" standalone="no"?>
<!DOCTYPE svg PUBLIC "-//W3C//DTD SVG 20010904//EN"
 "http://www.w3.org/TR/2001/REC-SVG-20010904/DTD/svg10.dtd">
<svg version="1.0" xmlns="http://www.w3.org/2000/svg"
 width="300.000000pt" height="300.000000pt" viewBox="0 0 300.000000 300.000000"
 preserveAspectRatio="xMidYMid meet">
<metadata>
Created by potrace 1.14, written by Peter Selinger 2001-2017
</metadata>
<g transform="translate(0.000000,300.000000) scale(0.100000,-0.100000)"
fill="#000000" stroke="none">
<path d="M384 2186 c-15 -38 0 -51 63 -56 47 -4 68 -11 85 -28 l23 -23 0 -569
0 -569 -22 -23 c-18 -17 -37 -23 -88 -26 -64 -4 -65 -5 -65 -33 l0 -29 484 0
484 0 6 31 c3 17 6 90 6 161 l0 129 -32 -3 c-32 -3 -33 -4 -40 -63 -10 -92
-28 -136 -67 -162 -33 -22 -40 -23 -283 -23 l-248 0 2 302 3 303 233 3 232 2
0 35 0 35 -232 2 -233 3 -3 268 -2 267 224 0 224 0 31 -26 c33 -28 46 -65 57
-161 l7 -63 33 0 c33 0 34 1 34 43 0 24 -3 99 -7 165 l-6 122 -449 0 c-381 0
-449 -2 -454 -14z"/>
<path d="M1430 2166 c0 -21 6 -24 49 -30 70 -9 84 -30 144 -206 20 -58 59
-170 87 -250 28 -80 62 -176 75 -215 13 -38 46 -135 74 -215 29 -80 62 -176
76 -215 13 -38 34 -99 47 -135 l23 -65 49 0 49 0 69 200 c38 110 86 252 108
315 21 63 66 194 100 290 33 96 79 229 102 295 63 186 68 192 147 202 45 5 51
8 51 29 l0 24 -215 0 -215 0 0 -24 c0 -22 5 -23 72 -29 59 -5 75 -10 90 -29
32 -42 33 -40 -146 -558 -35 -102 -73 -212 -84 -245 -32 -92 -82 -261 -82
-276 -1 -8 -7 -27 -14 -44 -13 -30 -13 -29 -45 75 -17 58 -36 119 -42 135 -6
17 -14 44 -19 60 -9 33 -29 89 -41 120 -5 11 -20 54 -33 95 -14 41 -55 161
-91 265 -37 105 -70 204 -75 220 -5 17 -15 49 -22 73 -11 37 -10 46 4 70 19
31 43 40 116 41 49 1 52 3 52 26 l0 25 -230 0 -230 0 0 -24z"/>
</g>
</svg>
